<svg width="37" height="38" viewBox="0 0 37 38" fill="none" xmlns="http://www.w3.org/2000/svg">
<path d="M30.6534 26.2775L28.5322 25.3644C31.5126 18.4409 28.3042 10.3821 21.3807 7.40163L22.2929 5.28079C30.3862 8.76636 34.1354 18.1835 30.6534 26.2775ZM20.7151 8.94425L19.8012 11.0636C24.7061 13.1751 26.9787 18.8833 24.8672 23.7882L26.9896 24.6988C29.6017 18.6291 26.7865 11.5579 20.7151 8.94425ZM19.0871 12.7278L18.1743 14.8499C20.9924 16.0615 22.2992 19.3439 21.085 22.1608L23.2062 23.0739C24.9216 19.0856 23.0733 14.443 19.0871 12.7278ZM3.82079 17.7412C4.44701 19.7791 5.14216 21.7928 5.89472 23.7858L5.88543 23.7895C5.90781 23.843 5.93224 23.8936 5.9537 23.9475C5.97552 24.0023 5.99252 24.0558 6.0123 24.1082L6.02252 24.1041C6.8457 26.069 7.72554 28.0113 8.67099 29.921C11.141 34.9221 16.5658 36.7362 20.1916 34.2615C20.3522 34.1567 20.5336 34.0823 20.6714 33.9499C21.4799 33.1609 21.9841 32.0916 22.6583 31.1816C23.5144 30.012 18.6398 24.9243 17.4279 26.3141C16.9818 26.8318 15.8841 28.6003 15.2932 28.9357C14.7659 29.236 14.0352 28.6712 13.7079 28.0115C12.8452 26.269 12.0613 23.9161 11.3112 21.9996L11.314 21.9985C11.2936 21.9474 11.2709 21.893 11.2498 21.84C11.2287 21.7871 11.2074 21.7309 11.1875 21.6808L11.1838 21.6822C10.4114 19.7746 9.36359 17.5268 8.79261 15.6682C8.57648 14.9631 8.71871 14.0497 9.3089 13.9073C9.96857 13.7448 11.9814 14.2748 12.6613 14.3443C14.4968 14.5209 14.539 7.47341 13.115 7.21374C11.9994 7.01528 10.8978 6.58418 9.76902 6.56861C9.5772 6.56533 9.3938 6.63727 9.20601 6.67114C4.87112 7.36477 2.17893 12.4115 3.82079 17.7412Z" fill="#FFCA00"/>
</svg>
